<svg xmlns="http://www.w3.org/2000/svg" xmlns:xlink="http://www.w3.org/1999/xlink" width="361" height="215" viewBox="0 0 361 215">
    <defs>
        <path id="a" d="M58.39 31H.052V.643H58.39V31z"/>
        <path id="c" d="M7.645 0H0v32.388h7.645z"/>
        <path id="e" d="M0 6.335V.684h8.466v5.65H0z"/>
        <path id="g" d="M.487 0h22.141v11.925H.488V0z"/>
        <path id="i" d="M25.283 0H.34v11.925h24.944V0z"/>
        <path id="k" d="M27 14.584V.017H.985v14.567H27z"/>
    </defs>
    <g fill="none" fill-rule="evenodd">
        <path fill="#BADFFF" d="M199.769 141.688a.85.85 0 1 0-.76 1.52l13.87 6.939a.848.848 0 0 0 1.14-.381.85.85 0 0 0-.38-1.14l-13.87-6.939zM229.839 149.432a.85.85 0 0 0 .38-1.61l-21.575-10.793a.85.85 0 1 0-.76 1.52l21.576 10.793c.122.06.25.09.379.09M153.038 124.969l13.114-6.402-64.11-32.824-19.766 9.489a.849.849 0 1 0 .735 1.532l19.006-9.124 60.336 30.89-11.23 5.483-40.675-20.315a.85.85 0 0 0-.759 1.52l39.512 19.733-33.108 16.165-51.257-25.257a.85.85 0 0 0-.75 1.525l51.631 25.44.373.184 35.025-17.1 8.686 4.337-40.208 20.057a.85.85 0 0 0 .758 1.52l43.255-21.575-10.568-5.278z"/>
        <path fill="#BADFFF" d="M129.843 123.506a.85.85 0 0 0 .76-1.521l-27.74-13.875a.85.85 0 1 0-.76 1.52l27.74 13.876zM51.18 98.772a.85.85 0 0 0 .382 1.14l39.023 19.398a.847.847 0 0 0 1.138-.383.85.85 0 0 0-.382-1.14L52.319 98.39a.848.848 0 0 0-1.14.382M227.435 178.477a.85.85 0 1 0-.757 1.52L296.813 215h3.805l-73.183-36.523zM239.606 173.023l70.445 35.56a.85.85 0 0 0 .765-1.517l-70.445-35.56a.85.85 0 0 0-.766 1.517M152.894 188.656c.47 0 .85-.38.85-.85v-29.45l-28.715 14.764-42.636-21.327v31.764a.85.85 0 1 0 1.699 0v-29.014l40.947 20.482 27.006-13.884v26.665c0 .47.38.85.849.85"/>
        <path fill="#BADFFF" d="M138.827 184.835a.85.85 0 0 0-.776-1.513l-13.868 7.125-27.353-14.063a.85.85 0 0 0-.776 1.512l28.129 14.461 14.644-7.522zM96.647 187.061a.85.85 0 1 0-.75 1.524l21.36 10.518a.85.85 0 0 0 .75-1.525l-21.36-10.517zM137.605 65.352l-13.813-6.91a.85.85 0 0 0-.759 1.52l14.572 7.29V74.2l-13.81-7.01a.85.85 0 0 0-.768 1.516l14.578 7.4v9.473L82.727 57.94l-.375-.189-12.701 6.171v-28.99l12.317-6.525 55.636 27.83v9.116zM81.948 26.494l-13.995 7.412v32.73l14.385-6.99 56.965 28.691V76.968l4.53 2.3a.848.848 0 0 0 .768-1.515l-5.298-2.69v-6.96l11.469 5.737a.85.85 0 0 0 .76-1.521l-12.23-6.117V55.185L82.339 26.69l-.39-.196zM189.548 106.801a.85.85 0 0 0 .38-1.61l-14.1-7.054a.85.85 0 0 0-.76 1.52l14.1 7.054c.123.061.253.09.38.09M173.302 197.002a.85.85 0 1 0-.76 1.521l21.577 10.793a.849.849 0 0 0 .76-1.52l-21.577-10.794zM165.961 102.484a.85.85 0 1 0-.76 1.52l21.036 10.523a.848.848 0 0 0 1.14-.38.851.851 0 0 0-.38-1.14l-21.036-10.523zM165.635 85.26l36.506-18.46a.85.85 0 1 0-.766-1.516l-34.04 17.213V42.975l53.511-26.955v33.269c0 .47.38.849.85.849s.85-.38.85-.85V13.263l-56.91 28.666V85.26zM55.212 62.885a.85.85 0 0 0-.85.85v11.657l-13.59-6.604v13.916l-14.44-7.418V91.78a.849.849 0 1 0 1.699 0V78.07l14.44 7.418V71.504l13.59 6.604V63.735a.85.85 0 0 0-.85-.85M195.364 172.133l-15.289 7.855.002-13.895-12.743 6.375-.002-11.005a.85.85 0 0 0-1.698 0l.001 13.755 12.743-6.374-.002 13.928 15.29-7.855v19.688a.849.849 0 1 0 1.698 0v-22.472zM338.795 94.637a.856.856 0 0 0 1.143-.374.852.852 0 0 0-.374-1.143l-19.36-9.81 13.042-6.337-41.868-22.158-69.897 34.772a.852.852 0 0 0-.382 1.14.847.847 0 0 0 1.138.382l69.118-34.384 38.135 20.183-11.19 5.438-27.078-13.72a.852.852 0 0 0-1.142.374.852.852 0 0 0 .374 1.143l25.926 13.136-26.731 12.99V82.444l-13.59 6.987V75.94l-29.29 14.793 30.613 15.314a.85.85 0 0 0 .76-1.52l-27.588-13.801 23.806-12.023v13.512l13.59-6.987v13.755l30.333-14.74 20.512 10.393zM27.676 48.219L7.31 37.523a.85.85 0 0 0-.79 1.505l20.365 10.696a.848.848 0 0 0 1.147-.357.849.849 0 0 0-.357-1.148M332.12 146.164l-12.938 6.473-14.682-7.478a.85.85 0 0 0-.772 1.516l13.563 6.907-6.919 3.462-15.353-7.819a.849.849 0 1 0-.77 1.514l14.232 7.25-31.576 15.795-26.512-13.08 55.395-27.9v-13.172l26.332 13.172v13.36zm1.698-14.41l-29.728-14.872v14.873l-57.506 28.964 30.327 14.963 33.452-16.734 5.075 2.585a.85.85 0 0 0 .772-1.515l-3.956-2.016 6.92-3.46 5.746 2.926a.847.847 0 0 0 1.142-.372.851.851 0 0 0-.37-1.144l-4.629-2.356 12.755-6.38v-15.463zM291.678 27.082L263.174 13.02l-14.296 7.094v16.949l-13.16-6.583a.85.85 0 0 0-.76 1.521l13.92 6.962v11.176a.85.85 0 1 0 1.698 0V39.813l5.959 2.98a.848.848 0 0 0 1.14-.379.852.852 0 0 0-.38-1.14l-6.72-3.362V21.166l12.6-6.252 27.75 13.691a.85.85 0 0 0 .752-1.523M347.06 107.904a.85.85 0 0 0-1.145-.368l-6.441 3.31-13.435-7.057a.851.851 0 0 0-.791 1.506l12.378 6.501-12.648 6.498a.849.849 0 1 0 .776 1.511l13.71-7.044L361 124.071v-1.92l-19.686-10.34 5.378-2.762a.851.851 0 0 0 .368-1.145M345.915 16.523l-34.676 17.815a.85.85 0 1 0 .777 1.512l34.675-17.815a.85.85 0 0 0-.776-1.512"/>
        <path fill="#BADFFF" d="M315.447 97.936l-11.438 5.682a.85.85 0 0 0 .755 1.523l11.438-5.684a.85.85 0 0 0-.755-1.521M89.32 79.543L68.597 89.841a.849.849 0 1 0 .755 1.522l20.725-10.298a.849.849 0 1 0-.755-1.522M202.002 38.022a.85.85 0 0 0-1.14-.382l-21.575 10.722a.85.85 0 0 0 .756 1.522l21.576-10.722a.851.851 0 0 0 .383-1.14M193.342 48.911l-14.055 6.985a.85.85 0 0 0 .756 1.522l14.055-6.985a.851.851 0 0 0 .383-1.14.847.847 0 0 0-1.14-.382M341.549 212.302a.849.849 0 0 0 .375-1.612l-47.605-23.347 58.922-30.262a.85.85 0 1 0-.776-1.512l-61.934 31.808 50.645 24.838c.12.06.248.087.373.087M11.141 170.467a.848.848 0 0 0-1.142-.374L0 175.166v1.905l10.767-5.462a.85.85 0 0 0 .374-1.142M7.208 183.448a.846.846 0 0 0-1.142-.374L0 186.151v1.905l6.835-3.466a.85.85 0 0 0 .373-1.142M346.134 70.123a.85.85 0 0 0 .377-1.612l-83.054-41.117a.847.847 0 0 0-1.137.385.848.848 0 0 0 .384 1.138l83.054 41.118c.12.06.25.088.376.088"/>
        <g transform="translate(214 184)">
            <mask id="b" fill="#fff">
                <use xlink:href="#a"/>
            </mask>
            <path fill="#BADFFF" d="M58.3 30.531a.85.85 0 0 0-.383-1.139L.052.643v28.658a.85.85 0 0 0 1.699 0V3.385l55.41 27.53a.842.842 0 0 0 .349.085h.053a.847.847 0 0 0 .738-.469" mask="url(#b)"/>
        </g>
        <path fill="#BADFFF" d="M192.757 6.117L164.63 20.38a.85.85 0 0 0 .768 1.516l28.127-14.263a.848.848 0 0 0 .374-1.14.846.846 0 0 0-1.142-.375"/>
        <g>
            <mask id="d" fill="#fff">
                <use xlink:href="#c"/>
            </mask>
            <path fill="#BADFFF" d="M0 32.388l7.645-3.794V0H5.946v27.54L0 30.49z" mask="url(#d)"/>
        </g>
        <path fill="#BADFFF" d="M48.416 8.41v39.094c-4.644-2.25-22.441-11.213-34.673-17.397a.849.849 0 1 0-.767 1.517s8.934 4.517 17.89 9.022c18.337 9.221 18.334 9.218 18.845 8.906l.404-.25V7.358L35.405 0h-3.8l16.811 8.41z"/>
        <g transform="translate(0 57)">
            <mask id="f" fill="#fff">
                <use xlink:href="#e"/>
            </mask>
            <path fill="#BADFFF" d="M7.616 6.335A.85.85 0 0 0 8 4.726L0 .684v1.904l7.234 3.655a.844.844 0 0 0 .382.091" mask="url(#f)"/>
        </g>
        <path fill="#BADFFF" d="M41.494 17.951L20.726 7.562a.85.85 0 0 0-.76 1.521l20.768 10.39a.85.85 0 0 0 .76-1.521M41.533 27.396l-20.42-10.263a.85.85 0 1 0-.763 1.519l20.42 10.263a.848.848 0 0 0 1.14-.378.85.85 0 0 0-.377-1.141M5.946 215h1.699v-12.087L31.807 215h3.799l-29.66-14.837zM361 30.069l-29.904 14.84L361 60.019v-1.904l-26.108-13.191L361 31.966zM203.747 84.815a.848.848 0 0 0 1.14.383l69.737-34.693a.85.85 0 0 0-.757-1.522L204.13 83.676a.85.85 0 0 0-.382 1.139M22.084 180.35v-39.286l39.073 18.998v39.652l-11.041-5.472v-26.83a.85.85 0 1 0-1.7 0V193.4l-26.331-13.05zm27.183 29.552a.85.85 0 0 0 .848-.85v-12.914l12.741 6.315v-43.455l-42.47-20.65v43.058l28.03 13.89v13.756c0 .47.38.85.85.85z"/>
        <path fill="#BADFFF" d="M41.621 163.162a.85.85 0 0 0-.849.85v13.596a.85.85 0 1 0 1.7 0v-13.596a.85.85 0 0 0-.85-.85M34.826 159.763a.85.85 0 0 0-.85.85v13.597a.85.85 0 1 0 1.7 0v-13.597a.85.85 0 0 0-.85-.85M136.897 6.39a.851.851 0 0 0 .386 1.607.84.84 0 0 0 .384-.092L153.195 0h-3.747l-12.551 6.39zM121.795 0L107.4 7.22l44.142 22.273a.849.849 0 0 0 .765-1.517L111.18 7.225 125.585 0h-3.79zM150.14 49.54a.85.85 0 0 0 .753-1.524l-33.076-16.391a.85.85 0 1 0-.754 1.524L150.14 49.54z"/>
        <g transform="translate(147)">
            <mask id="h" fill="#fff">
                <use xlink:href="#g"/>
            </mask>
            <path fill="#BADFFF" d="M21.396.02L.956 10.316a.85.85 0 0 0 .762 1.518L22.16 1.54a.85.85 0 0 0 .378-1.141.846.846 0 0 0-.447-.4h-.619c-.024.01-.05.01-.076.022" mask="url(#h)"/>
        </g>
        <path fill="#BADFFF" d="M353.79 90.41l7.21-3.607v-1.9l-11.009 5.506L361 95.916v-1.9zM5.117 126.566a.847.847 0 0 0 1.147-.357.85.85 0 0 0-.357-1.148L0 121.96v1.92l5.117 2.687zM69.017 140.046a.85.85 0 0 0 .38-1.611L.428 104.129a.83.83 0 0 0-.429-.075v1.76l68.64 34.143c.122.06.25.089.377.089M47.508 119.398a.85.85 0 0 0 .38-1.61L0 93.833v1.9l47.13 23.575c.121.061.25.09.378.09M0 85.085v1.9l8.963-4.483a.851.851 0 0 0-.76-1.52L0 85.084zM165.07 208.094a.85.85 0 0 0-1.142-.373L149.63 215h3.746l11.321-5.763a.85.85 0 0 0 .373-1.143M151.647 202.02a.85.85 0 0 0-.761-1.519L121.98 215h3.79l25.877-12.98zM234.438 133.419h.008l.262-.002 13.153 6.704a.847.847 0 0 0 1.142-.371.85.85 0 0 0-.372-1.143l-10.243-5.221 28.055-.235-17.11-8.54a.85.85 0 1 0-.758 1.521l10.775 5.379-24.243.203-5.395-2.751 14.66-7.333-14.17-7.04 8.882-4.423 40.457 20.137a.85.85 0 1 0 .756-1.523l-41.213-20.512-10.792 5.373-41.315-20.525a.847.847 0 0 0-1.138.384.848.848 0 0 0 .383 1.138l40.161 19.952-63.367 31.543 43.238 21.744.38.19 14.25-7.128a.85.85 0 1 0-.76-1.521l-13.488 6.749-39.822-20.026 61.478-30.603 12.27 6.096-14.62 7.313 7.71 3.93c.124.316.428.54.786.54M77.296 0h-1.699v7.987l21.095 10.118a.847.847 0 0 0 1.133-.398.848.848 0 0 0-.398-1.133l-13.126-6.297L94.525 0H92.13l-9.45 9.499-5.383-2.582V0zM77.296 202.253a.85.85 0 1 0-1.699 0V215h1.7v-12.747zM83.136 203.978a.848.848 0 0 0-1.146.36.851.851 0 0 0 .361 1.148l12.654 6.595L92.1 215h2.396l3.343-3.36-14.702-7.661z"/>
        <g transform="translate(297)">
            <mask id="j" fill="#fff">
                <use xlink:href="#i"/>
            </mask>
            <path fill="#BADFFF" d="M24.055 11.836a.85.85 0 0 0 .758-1.521L4.143 0H.34l23.716 11.836z" mask="url(#j)"/>
        </g>
        <g transform="translate(334 175)">
            <mask id="l" fill="#fff">
                <use xlink:href="#k"/>
            </mask>
            <path fill="#BADFFF" d="M1.45 12.977a.85.85 0 0 0 .77 1.516L27 1.92V.017L1.45 12.977z" mask="url(#l)"/>
        </g>
        <path fill="#BADFFF" d="M361 186.002l-15.611 7.919a.85.85 0 0 0 .768 1.516l14.843-7.53v-1.905z"/>
    </g>
</svg>
